Coordinates
version=1
nRows=17
nColumns=24
inDegrees=yes

Units are S.I. units (second, meters, Newtons, ...)
Angles are in degrees.

endheader
time	pelvis_tilt	pelvis_list	pelvis_rotation	pelvis_tx	pelvis_ty	pelvis_tz	hip_flexion_r	hip_adduction_r	hip_rotation_r	knee_angle_r	ankle_angle_r	subtalar_angle_r	mtp_angle_r	hip_flexion_l	hip_adduction_l	hip_rotation_l	knee_angle_l	ankle_angle_l	subtalar_angle_l	mtp_angle_l	lumbar_extension	lumbar_bending	lumbar_rotation
      0.79566667	     -4.69227636	     -2.09550045	      1.49651447	     -0.47812897	      0.99924934	      0.34632458	     14.37498003	      6.65781604	     -6.16680596	    -12.30440866	      2.70834282	     -6.72652658	      7.07219290	     23.65615839	     -2.74177294	      2.33605077	    -66.59778760	     -5.99127317	     -8.01110822	      3.83480776	      1.88345746	      4.65441496	      3.83699790
      0.79983333	     -4.62461396	     -2.02690790	      1.36864198	     -0.47316505	      0.99994205	      0.34658941	     13.84617575	      6.62542162	     -6.13113348	    -12.05622579	      2.87572402	     -6.37515926	      7.09813213	     24.10755563	     -2.64016849	      2.34922934	    -66.30563452	     -5.36476069	     -8.21561680	      3.67144927	      1.72979028	      4.57750120	      4.09967441
      0.80400000	     -4.61276375	     -1.95182876	      1.22781199	     -0.46822926	      1.00052414	      0.34686371	     13.38904144	      6.58786512	     -6.05887363	    -11.83085628	      3.00573590	     -6.21103887	      7.11045924	     24.60656676	     -2.53424493	      2.34466471	    -65.96582252	     -4.75557846	     -8.47356109	      3.60646263	      1.66273648	      4.51367479	      4.18178180
      0.80816667	     -4.56206228	     -1.87077511	      1.09159899	     -0.46327834	      1.00113284	      0.34712726	     12.87948141	      6.53862030	     -6.01819281	    -11.58147037	      3.17405039	     -5.87341016	      7.13703407	     25.04399954	     -2.42281655	      2.34519035	    -65.56639780	     -4.19149105	     -8.61552468	      3.42911797	      1.53897516	      4.42203142	      4.44411562
      0.81233333	     -4.60021452	     -1.80343907	      0.96755061	     -0.45836953	      1.00155735	      0.34737629	     12.47003100	      6.50478815	     -5.93794471	    -11.33530658	      3.30213176	     -5.76013964	      7.14457304	     25.57798345	     -2.31557933	      2.36668419	    -65.13480675	     -3.67819084	     -8.81820913	      3.40388469	      1.53940276	      4.35405939	      4.48344118
      0.81650000	     -4.54508520	     -1.72092516	      0.78695016	     -0.45346304	      1.00207526	      0.34768254	     11.98062383	      6.45545731	     -5.86983123	    -11.13275723	      3.47964170	     -5.40052969	      7.17119009	     25.97892385	     -2.23349605	      2.30313679	    -64.64721854	     -3.10874469	     -8.90400463	      3.23081212	      1.39203904	      4.27451580	      4.78074519
      0.82066667	     -4.55277349	     -1.64918936	      0.62299670	     -0.44859791	      1.00246611	      0.34796440	     11.55592388	      6.41747000	     -5.76739511	    -10.91579719	      3.60430483	     -5.23571208	      7.18305440	     26.44630103	     -2.14856700	      2.26727104	    -64.12298216	     -2.60550739	     -9.06978028	      3.16889779	      1.32710369	      4.20745169	      4.85479261
      0.82483333	     -4.49284170	     -1.57514773	      0.46699137	     -0.44366353	      1.00292071	      0.34823098	     11.04474882	      6.36950276	     -5.71814568	    -10.67972818	      3.76964474	     -4.90979531	      7.20795719	     26.81137563	     -2.06828057	      2.22869939	    -63.53362333	     -2.13889909	     -9.11056888	      2.99407153	      1.20309429	      4.13287777	      5.11969767
      0.82900000	     -4.50987654	     -1.50116814	      0.29478958	     -0.43880614	      1.00320914	      0.34848790	     10.64420622	      6.31843029	     -5.64756490	    -10.48940368	      3.92412634	     -4.60826552	      7.23972682	     27.25474373	     -1.98552848	      2.18518765	    -62.91439833	     -1.69193183	     -9.18243834	      2.74952999	      1.14878666	      4.07339443	      5.32808207
      0.83316667	     -4.52798186	     -1.45282847	      0.13127037	     -0.43394485	      1.00345564	      0.34876803	     10.22457568	      6.30189105	     -5.53498714	    -10.25441286	      4.05078207	     -4.46992189	      7.24979033	     27.69189143	     -1.93770748	      2.14260796	    -62.26159544	     -1.29199136	     -9.28511710	      2.70227135	      1.10497737	      4.02111256	      5.36846401
      0.83733333	     -4.47308128	     -1.38162438	     -0.04791336	     -0.42903690	      1.00379378	      0.34904815	      9.72902593	      6.25311167	     -5.46706507	    -10.03157566	      4.20531516	     -4.18754578	      7.27252387	     28.01180711	     -1.88169801	      2.06414841	    -61.53286597	     -0.91620395	     -9.27557442	      2.54959066	      0.98510432	      3.95384884	      5.59975639
      0.84150000	     -4.44326134	     -1.32855812	     -0.21542091	     -0.42417598	      1.00403427	      0.34928388	      9.26525337	      6.21890589	     -5.38453011	     -9.80915299	      4.33532565	     -3.91210194	      7.30122364	     28.35483587	     -1.82870137	      2.01890866	    -60.77873308	     -0.56335751	     -9.29712481	      2.34778374	      0.86947872	      3.91708752	      5.78624095
      0.84566667	     -4.45233873	     -1.28475470	     -0.39380661	     -0.41931408	      1.00416744	      0.34953027	      8.85793006	      6.19017894	     -5.33623442	     -9.61405308	      4.45266139	     -3.61492681	      7.35578902	     28.72731156	     -1.79684844	      1.95281192	    -59.99394590	     -0.21793668	     -9.33858312	      1.91083881	      0.81558327	      3.87840127	      5.99496633
      0.84983333	     -4.43547552	     -1.22994524	     -0.56597954	     -0.41442674	      1.00433442	      0.34979292	      8.39551039	      6.15677031	     -5.21515221	     -9.36991472	      4.61627316	     -3.44038530	      7.37868842	     29.04590186	     -1.76163710	      1.87610722	    -59.14326146	      0.02067265	     -9.30661516	      1.78325531	      0.73423231	      3.82549249	      6.06086605
      0.85400000	     -4.41136593	     -1.18630856	     -0.73238315	     -0.40955852	      1.00445432	      0.35002351	      7.93523823	      6.12748507	     -5.12493895	     -9.13934954	      4.74194893	     -3.21109262	      7.40474570	     29.34308105	     -1.72986828	      1.81614358	    -58.25981972	      0.26320669	     -9.29037414	      1.64298507	      0.63234763	      3.79307439	      6.21087285
      0.85816667	     -4.39320145	     -1.16252634	     -0.89562672	     -0.40468142	      1.00451559	      0.35025169	      7.47953969	      6.11734666	     -5.04339998	     -8.90418344	      4.86802193	     -2.98935249	      7.43328808	     29.63390918	     -1.72400207	      1.75318881	    -57.34609046	      0.48250964	     -9.26535663	      1.49786930	      0.54347751	      3.77555893	      6.34355415
      0.86233333	     -4.39541353	     -1.13559851	     -1.07612727	     -0.39982124	      1.00452550	      0.35050169	      7.05022716	      6.10678567	     -4.90841900	     -8.67674362	      4.99072910	     -2.80864435	      7.45157982	     29.92419821	     -1.72426143	      1.67414002	    -56.38420316	      0.66292019	     -9.24396534	      1.42534369	      0.47681915	      3.76014002	      6.41331756
